{
	"asset":{
		"version":"2.0",
		"generator":"Houdini GLTF 2.0 Exporter"
	},
	"accessors":[
		{
			"bufferView":0,
			"componentType":5125,
			"count":128010,
			"type":"SCALAR",
			"min":[0
			],
			"max":[128009
			]
		},
		{
			"bufferView":1,
			"componentType":5126,
			"count":128010,
			"type":"VEC3",
			"min":[-0.507475972,0.0104666902,-0.148521289
			],
			"max":[0.507478535,1.6973604,0.138979048
			]
		},
		{
			"bufferView":2,
			"componentType":5126,
			"count":128010,
			"type":"VEC2",
			"min":[0.00832000002,0.00451302528
			],
			"max":[1.98952794,0.993009984
			]
		},
		{
			"bufferView":3,
			"componentType":5126,
			"count":128010,
			"type":"VEC3",
			"min":[-0.999971032,-0.999987662,-0.999952734
			],
			"max":[0.999963343,0.999890387,0.99999088
			]
		},
		{
			"bufferView":4,
			"componentType":5121,
			"count":102,
			"type":"SCALAR",
			"min":[0
			],
			"max":[35
			]
		},
		{
			"bufferView":5,
			"componentType":5126,
			"count":36,
			"type":"VEC3",
			"min":[-1.46599996,0,-1.46599996
			],
			"max":[1.46599996,0,1.46599996
			]
		}
	],
	"buffers":[
		{
			"uri":"female_data.bin",
			"byteLength":4608896,
			"name":"main_buffer"
		}
	],
	"bufferViews":[
		{
			"buffer":0,
			"byteLength":512040,
			"target":34963
		},
		{
			"buffer":0,
			"byteOffset":512040,
			"byteLength":1536120,
			"target":34962
		},
		{
			"buffer":0,
			"byteOffset":2048160,
			"byteLength":1024080,
			"target":34962
		},
		{
			"buffer":0,
			"byteOffset":3072240,
			"byteLength":1536120,
			"target":34962
		},
		{
			"buffer":0,
			"byteOffset":4608360,
			"byteLength":102,
			"target":34963
		},
		{
			"buffer":0,
			"byteOffset":4608464,
			"byteLength":432,
			"target":34962
		}
	],
	"nodes":[
		{
			"children":[1,2
			],
			"name":"Root"
		},
		{
			"name":"creature",
			"mesh":0
		},
		{
			"name":"ground",
			"mesh":1
		}
	],
	"meshes":[
		{
			"primitives":[
				{
					"attributes":{
						"NORMAL":3,
						"TEXCOORD_0":2,
						"POSITION":1
					},
					"indices":0
				}
			]
		},
		{
			"primitives":[
				{
					"attributes":{
						"POSITION":5
					},
					"indices":4
				}
			]
		}
	],
	"scenes":[
		{
			"nodes":[0
			]
		}
	],
	"scene":0
}
